<svg t="1573607587674" class="icon" viewBox="0 0 1024 1024" version="1.1" xmlns="http://www.w3.org/2000/svg" p-id="1521"
     width="200" height="200">
    <path d="M320.73148 899.177333h-47.305205V203.380844L952.918237 0v804.566923h-47.305205V63.546658L320.73148 238.607453z"
          fill="#169DFA" p-id="1522"></path>
    <path d="M195.845739 1023.968463a124.917277 124.917277 0 0 1-124.79113-124.79113 124.948814 124.948814 0 0 1 124.79113-124.79113 124.948814 124.948814 0 0 1 124.79113 124.79113 124.917277 124.917277 0 0 1-124.79113 124.79113z m0-202.277056a77.580536 77.580536 0 0 0-77.485925 77.485926 77.580536 77.580536 0 0 0 77.485925 77.485925 77.580536 77.580536 0 0 0 77.485926-77.485925 77.580536 77.580536 0 0 0-77.485926-77.485926z"
          fill="#F6882D" p-id="1523"></path>
    <path d="M828.127107 930.398768a124.948814 124.948814 0 0 1-124.791131-124.79113 124.917277 124.917277 0 0 1 124.791131-124.79113 124.917277 124.917277 0 0 1 124.79113 124.79113 124.948814 124.948814 0 0 1-124.79113 124.79113z m0-202.277056a77.580536 77.580536 0 0 0-77.485926 77.485926 77.580536 77.580536 0 0 0 77.485926 77.485925 77.580536 77.580536 0 0 0 77.485925-77.485925 77.580536 77.580536 0 0 0-77.485925-77.485926z"
          fill="#F6882D" p-id="1524"></path>
</svg>
